<svg width="43" height="38" viewBox="0 0 43 38" fill="none" xmlns="http://www.w3.org/2000/svg">
<path d="M42.2937 17.8548C40.5772 14.2386 38.5346 11.2894 36.1658 9.00714L33.6814 11.4915C35.7073 13.4276 37.4719 15.9603 38.9978 19.1146C34.9353 27.5228 29.1687 31.5169 21.2878 31.5169C18.9223 31.5169 16.7434 31.1527 14.7512 30.4241L12.0593 33.116C14.8262 34.3937 17.9024 35.0325 21.2878 35.0325C30.6726 35.0325 37.6745 30.1448 42.2937 20.3695C42.4794 19.9763 42.5757 19.5469 42.5757 19.1121C42.5757 18.6773 42.4794 18.2479 42.2937 17.8548V17.8548ZM39.1897 2.19855L37.1081 0.114565C37.0719 0.078246 37.0288 0.0494342 36.9814 0.0297762C36.9339 0.0101183 36.8831 0 36.8318 0C36.7804 0 36.7296 0.0101183 36.6822 0.0297762C36.6348 0.0494342 36.5917 0.078246 36.5554 0.114565L31.2151 5.45246C28.2707 3.94855 24.9616 3.1966 21.2878 3.1966C11.9031 3.1966 4.9011 8.08429 0.281959 17.8597C0.0962922 18.2528 0 18.6822 0 19.117C0 19.5518 0.0962922 19.9812 0.281959 20.3743C2.12734 24.2611 4.34902 27.3765 6.947 29.7205L1.78001 34.8861C1.70681 34.9593 1.66569 35.0586 1.66569 35.1622C1.66569 35.2657 1.70681 35.365 1.78001 35.4383L3.86448 37.5228C3.93773 37.596 4.03705 37.6371 4.1406 37.6371C4.24416 37.6371 4.34348 37.596 4.41672 37.5228L39.1897 2.75128C39.226 2.71501 39.2548 2.67192 39.2745 2.6245C39.2941 2.57708 39.3042 2.52625 39.3042 2.47492C39.3042 2.42358 39.2941 2.37275 39.2745 2.32533C39.2548 2.27791 39.226 2.23483 39.1897 2.19855ZM3.57786 19.1146C7.64524 10.7064 13.4118 6.71222 21.2878 6.71222C23.9509 6.71222 26.3723 7.16925 28.5691 8.09845L25.1365 11.5311C23.5108 10.6637 21.6494 10.3418 19.8269 10.6128C18.0044 10.8839 16.3172 11.7335 15.0143 13.0364C13.7115 14.3393 12.8618 16.0264 12.5908 17.849C12.3197 19.6715 12.6416 21.5329 13.509 23.1585L9.43577 27.2318C7.18137 25.242 5.23801 22.5462 3.57786 19.1146ZM15.6238 19.1146C15.6246 18.2536 15.8286 17.4049 16.219 16.6375C16.6095 15.8701 17.1755 15.2057 17.871 14.6981C18.5665 14.1906 19.3719 13.8542 20.2218 13.7164C21.0718 13.5786 21.9422 13.6433 22.7624 13.9051L15.883 20.7845C15.7106 20.2446 15.6231 19.6813 15.6238 19.1146V19.1146Z" fill="#DDDDDD"/>
</svg>
