<svg width="50" height="50" viewBox="0 0 50 50" fill="none" xmlns="http://www.w3.org/2000/svg">
<path fill-rule="evenodd" clip-rule="evenodd" d="M35.4719 3.40936C37.992 3.92298 40.3245 5.11376 42.2185 6.85366C44.1126 8.59357 45.4967 10.8168 46.2219 13.2844C46.8938 15.5469 46.9938 17.9406 46.5125 20.2531C45.8169 23.4214 44.0664 26.2596 41.5475 28.3034C39.0285 30.3471 35.8905 31.4752 32.6469 31.5031C31.2781 31.5031 29.9156 31.3062 28.6063 30.9094L26.1063 33.8406L24.9219 34.3875H21.875V39.075L20.3125 40.6375H15.625V45.325L14.0625 46.8875H4.6875L3.125 45.325V38.1156L3.58125 37.0125L19.125 21.4687C18.6839 20.0479 18.4729 18.5656 18.5 17.0781C18.5285 14.997 19.0157 12.9477 19.927 11.0765C20.8382 9.20526 22.1511 7.55808 23.7719 6.25239C25.3928 4.94671 27.2817 4.01466 29.3041 3.5227C31.3264 3.03074 33.4324 2.99097 35.4719 3.40624V3.40936ZM39.5906 25.9094C41.5537 24.3197 42.9189 22.1106 43.4625 19.6437L43.475 19.6594C43.8622 17.8556 43.7925 15.9837 43.2723 14.2137C42.7521 12.4438 41.7979 10.8318 40.4964 9.5244C39.1949 8.21696 37.5872 7.25547 35.8196 6.72728C34.052 6.1991 32.1805 6.12097 30.375 6.49999C27.9399 7.04045 25.7557 8.38004 24.1701 10.3055C22.5844 12.2309 21.6885 14.6315 21.625 17.125C21.5938 18.55 21.8438 19.9625 22.3719 21.2812L22.0281 22.9781L6.25 38.7625V43.7625H12.5V39.075L14.0625 37.5125H18.75V32.825L20.3125 31.2625H24.2031L26.9406 28.0875L28.6938 27.65C29.9575 28.1438 31.3026 28.3961 32.6594 28.3937C35.1845 28.3744 37.6282 27.4985 39.5906 25.9094V25.9094ZM36.9719 17.3719C37.2183 17.0314 37.3935 16.6447 37.487 16.235C37.5805 15.8252 37.5903 15.4008 37.516 14.9872C37.4417 14.5735 37.2847 14.1791 37.0545 13.8276C36.8242 13.476 36.5254 13.1745 36.1759 12.9411C35.8264 12.7076 35.4334 12.5471 35.0204 12.4691C34.6075 12.3911 34.183 12.3971 33.7724 12.487C33.3619 12.5768 32.9736 12.7485 32.631 12.9918C32.2883 13.2351 31.9982 13.5451 31.7781 13.9031C31.3547 14.5918 31.2147 15.4178 31.3875 16.2076C31.5602 16.9974 32.0324 17.6895 32.7047 18.1385C33.377 18.5875 34.1971 18.7585 34.9928 18.6155C35.7886 18.4726 36.4979 18.0268 36.9719 17.3719V17.3719Z" fill="#DDDDDD"/>
</svg>
