<svg width="43" height="32" viewBox="0 0 43 32" fill="none" xmlns="http://www.w3.org/2000/svg">
<path d="M42.2937 14.6582C37.6648 4.90723 30.6677 0 21.2878 0C11.9031 0 4.91087 4.90723 0.281959 14.6631C0.0962922 15.0562 0 15.4856 0 15.9204C0 16.3552 0.0962922 16.7846 0.281959 17.1777C4.91087 26.9287 11.9079 31.8359 21.2878 31.8359C30.6726 31.8359 37.6648 26.9287 42.2937 17.1729C42.6697 16.3818 42.6697 15.4639 42.2937 14.6582V14.6582ZM21.2878 28.3203C13.4118 28.3203 7.64524 24.3262 3.57786 15.918C7.64524 7.50977 13.4118 3.51562 21.2878 3.51562C29.1638 3.51562 34.9304 7.50977 38.9978 15.918C34.9353 24.3262 29.1687 28.3203 21.2878 28.3203ZM21.0925 7.32422C16.3464 7.32422 12.4988 11.1719 12.4988 15.918C12.4988 20.6641 16.3464 24.5117 21.0925 24.5117C25.8386 24.5117 29.6863 20.6641 29.6863 15.918C29.6863 11.1719 25.8386 7.32422 21.0925 7.32422ZM21.0925 21.3867C18.07 21.3867 15.6238 18.9404 15.6238 15.918C15.6238 12.8955 18.07 10.4492 21.0925 10.4492C24.115 10.4492 26.5613 12.8955 26.5613 15.918C26.5613 18.9404 24.115 21.3867 21.0925 21.3867Z" fill="#DDDDDD"/>
</svg>
