<svg width="50" height="50" viewBox="0 0 50 50" fill="none" xmlns="http://www.w3.org/2000/svg">
<path d="M36.2792 13.7208C35.4978 12.9397 34.4382 12.5009 33.3333 12.5009C32.2285 12.5009 31.1689 12.9397 30.3875 13.7208L25 19.1083L19.6125 13.7208C19.2281 13.3229 18.7684 13.0054 18.26 12.7871C17.7517 12.5687 17.2049 12.4538 16.6517 12.4489C16.0984 12.4441 15.5498 12.5496 15.0377 12.7591C14.5256 12.9686 14.0604 13.278 13.6692 13.6692C13.278 14.0604 12.9686 14.5256 12.7591 15.0377C12.5496 15.5498 12.4441 16.0984 12.4489 16.6517C12.4538 17.2049 12.5687 17.7517 12.7871 18.26C13.0054 18.7684 13.3229 19.2281 13.7208 19.6125L19.1062 25L13.7208 30.3875C13.3229 30.7719 13.0054 31.2316 12.7871 31.74C12.5687 32.2483 12.4538 32.7951 12.4489 33.3483C12.4441 33.9016 12.5496 34.4502 12.7591 34.9623C12.9686 35.4744 13.278 35.9396 13.6692 36.3308C14.0604 36.722 14.5256 37.0314 15.0377 37.2409C15.5498 37.4504 16.0984 37.5558 16.6517 37.551C17.2049 37.5462 17.7517 37.4313 18.26 37.2129C18.7684 36.9945 19.2281 36.6771 19.6125 36.2792L25 30.8917L30.3875 36.2792C31.2 37.0937 32.2667 37.5 33.3333 37.5C34.4 37.5 35.4667 37.0937 36.2792 36.2792C37.0603 35.4978 37.4991 34.4382 37.4991 33.3333C37.4991 32.2285 37.0603 31.1689 36.2792 30.3875L30.8937 25L36.2792 19.6125C37.0603 18.8311 37.4991 17.7715 37.4991 16.6667C37.4991 15.5618 37.0603 14.5022 36.2792 13.7208V13.7208Z" fill="#DDDDDD"/>
</svg>
